<?xml version="1.0" standalone="no"?><!DOCTYPE svg PUBLIC "-//W3C//DTD SVG 1.1//EN" "http://www.w3.org/Graphics/SVG/1.1/DTD/svg11.dtd"><svg t="1545812826713" class="icon" style="" viewBox="0 0 1024 1024" version="1.1" xmlns="http://www.w3.org/2000/svg" p-id="700" xmlns:xlink="http://www.w3.org/1999/xlink" width="200" height="200"><defs><style type="text/css"></style></defs><path d="M398.00776133 367.83298584C390.1796 367.83298584 383.86048115 374.17097832 383.86048115 381.98027833L383.86048115 900.09131416C383.86048115 907.90061416 390.1796 914.23854248 398.00776133 914.23854248 405.79819385 914.23854248 412.15504151 907.90061416 412.15504151 900.09131416L412.15504151 381.98027833C412.15504151 374.17097832 405.79819385 367.83298584 398.00776133 367.83298584L398.00776133 367.83298584ZM140.43299434 582.49436416C132.62369433 582.49436416 126.28571416 588.83229248 126.28571416 596.64159248L126.28571416 900.09131416C126.28571416 907.90061416 132.62369433 914.23854248 140.43299434 914.23854248 148.24228818 914.23854248 154.58026748 907.90061416 154.58026748 900.09131416L154.58026748 596.64159248C154.58026748 588.83229248 148.24228818 582.49436416 140.43299434 582.49436416L140.43299434 582.49436416ZM913.11957266 406.76627833C905.31027969 406.76627833 898.99116084 413.10427168 898.99116084 420.91357168L898.99116084 900.09131416C898.99116084 907.90061416 905.31027969 914.23854248 913.11957266 914.23854248 920.92887266 914.23854248 927.28571416 907.90061416 927.28571416 900.09131416L927.28571416 420.91357168C927.28571416 413.10427168 920.92887266 406.76627833 913.11957266 406.76627833L913.11957266 406.76627833ZM908.78107783 246.41109248C916.59037783 246.31678584 922.871767 239.92222168 922.79631465 232.11292168L921.73998536 140.26882168C921.70225567 136.34527167 920.00458584 132.6104 917.099675 129.95070752 914.19477031 127.30991416 910.36557266 126.02722167 906.38547031 126.32904248L814.86201464 134.08170752C807.07158301 134.74192168 801.29949102 141.57035 801.94083682 149.36081416 802.60104482 157.15121416 809.56150332 162.75352168 817.23876084 162.28198584L872.865858 157.56624248 655.73343916 396.59859248 407.25065234 153.17115752C401.85582031 147.88950752 393.310867 147.73856416 387.78399248 152.8316L131.341008 387.37462168C125.56891865 392.65627168 125.17279472 401.59732168 130.45444385 407.36940752 135.73609385 413.14149248 144.67717549 413.51878584 150.4304 408.25597167L397.00802217 182.74837168 646.43395801 427.08127168C649.07478301 429.68439248 652.63990185 431.11796416 656.33705615 431.11796416L656.75203964 431.11796416C660.58123818 431.00482167 664.22180234 429.326 666.80603633 426.49652832L893.86041464 176.56132168 894.48289385 232.43357833C894.57721367 240.18630752 900.87746416 246.41109248 908.64903535 246.41109248L908.78107783 246.41109248 908.78107783 246.41109248ZM655.56366699 581.94729248C647.75437315 581.94729248 641.41639385 588.28528584 641.41639385 596.09458584L641.41639385 900.09131416C641.41639385 907.90061416 647.75437315 914.23854248 655.56366699 914.23854248 663.372967 914.23854248 669.71094717 907.90061416 669.71094717 900.09131416L669.71094717 596.09458584C669.71094717 588.28528584 663.372967 581.94729248 655.56366699 581.94729248L655.56366699 581.94729248Z" p-id="701"></path></svg>