<?xml version="1.0" standalone="no"?><!DOCTYPE svg PUBLIC "-//W3C//DTD SVG 1.1//EN" "http://www.w3.org/Graphics/SVG/1.1/DTD/svg11.dtd"><svg t="1545812926893" class="icon" style="" viewBox="0 0 1024 1024" version="1.1" xmlns="http://www.w3.org/2000/svg" p-id="4644" xmlns:xlink="http://www.w3.org/1999/xlink" width="200" height="200"><defs><style type="text/css"></style></defs><path d="M233.3 569.9c-3.6 0-7.3-1.4-10.1-4.1-5.6-5.6-5.7-14.6-0.2-20.3l141-143.4c4.3-4.4 10.9-5.5 16.5-2.9l199.7 96.4L783.5 327c6.1-5.1 15.1-4.2 20.2 1.9s4.2 15.1-1.9 20.2L591.5 523.6c-4.3 3.6-10.3 4.3-15.4 1.9l-198.7-95.9-133.9 136c-2.8 2.9-6.5 4.3-10.2 4.3zM914.6 228c0 7.9-6.4 14.3-14.3 14.3H125.8c-7.9 0-14.3-6.4-14.3-14.3s6.4-14.3 14.3-14.3h774.5c7.9 0 14.3 6.4 14.3 14.3zM318.1 852c-5.6-5.6-5.6-14.7 0-20.3L439 710.9c5.6-5.6 14.7-5.6 20.3 0 5.6 5.6 5.6 14.7 0 20.3L338.4 852c-5.6 5.6-14.7 5.6-20.3 0zM707.9 852c5.6-5.6 5.6-14.7 0-20.3L587 710.9c-5.6-5.6-14.7-5.6-20.3 0-5.6 5.6-5.6 14.7 0 20.3L687.6 852c5.6 5.6 14.7 5.6 20.3 0z" fill="#333333" p-id="4645"></path><path d="M833.4 213.7H192.6c-21.3 0-38.6 17.3-38.6 38.6v209.1h28.7V252.3c0-5.5 4.5-9.9 9.9-9.9h640.8c5.5 0 9.9 4.5 9.9 9.9v440.6c0 5.5-4.5 9.9-9.9 9.9H192.6c-5.5 0-9.9-4.5-9.9-9.9V576H154v116.9c0 21.3 17.3 38.6 38.6 38.6h640.8c21.3 0 38.6-17.3 38.6-38.6V252.3c0-21.3-17.3-38.6-38.6-38.6z" fill="#333333" p-id="4646"></path><path d="M168.3 575.2m-14.3 0a14.3 14.3 0 1 0 28.6 0 14.3 14.3 0 1 0-28.6 0Z" fill="#333333" p-id="4647"></path><path d="M168.3 461.1m-14.3 0a14.3 14.3 0 1 0 28.6 0 14.3 14.3 0 1 0-28.6 0Z" fill="#333333" p-id="4648"></path></svg>