<?xml version="1.0" standalone="no"?><!DOCTYPE svg PUBLIC "-//W3C//DTD SVG 1.1//EN" "http://www.w3.org/Graphics/SVG/1.1/DTD/svg11.dtd"><svg t="1545812498132" class="icon" style="" viewBox="0 0 1024 1024" version="1.1" xmlns="http://www.w3.org/2000/svg" p-id="25061" xmlns:xlink="http://www.w3.org/1999/xlink" width="200" height="200"><defs><style type="text/css"></style></defs><path d="M932.28567 414.43901l0-99.708909c0-27.724435-22.564925-53.596685-50.290383-53.596685l-47.267537 0 0-83.621513L151.821289 177.511903c-21.913079 0-51.909254 1.653663-71.031776 24.450878-17.217127 20.530592-21.272489 55.781444-12.371772 106.057501 0.054235 0.285502 0.231267 0.938372 0.298805 1.224898-0.177032 1.687432-0.51677 3.743254-0.51677 5.484921l0 484.775962c0 27.709085 22.565948 46.982034 50.290383 46.982034l763.506151 0c27.725458 0 50.290383-19.272949 50.290383-46.982034L932.286694 693.182502l27.872814 0L960.159508 414.43901 932.28567 414.43901zM102.157169 219.880873c10.751878-12.848633 30.541597-14.495132 49.66412-14.495132l655.033647 0 0 55.747675L118.49016 261.133416c-9.731642 0-18.768459 3.728928-26.471908 8.547677C90.656231 245.834988 93.977883 229.605352 102.157169 219.880873zM904.411833 799.506063c0 12.357446-10.0591 19.10922-22.416546 19.10922L118.49016 818.615283c-12.358469 0-22.416546-6.751774-22.416546-19.10922L96.073614 314.730101c0-12.364609 10.058077-25.723871 22.416546-25.723871l763.506151 0c12.357446 0 22.416546 13.358239 22.416546 25.723871l0 99.708909L669.226393 414.43901c-76.844156 0-139.368164 62.525032-139.368164 139.368164 0 76.850295 62.525032 139.375328 139.368164 139.375328L904.411833 693.182502 904.411833 799.506063zM932.28567 665.308665 669.226393 665.308665c-61.477166 0-111.49535-50.03251-111.49535-111.502513 0-61.477166 50.018184-111.494327 111.49535-111.494327l263.058255 0L932.284647 665.308665zM625.674481 557.1145c0 30.753421 25.00244 55.740512 55.747675 55.740512s55.748698-24.987091 55.748698-55.740512c0-30.745235-25.003464-55.747675-55.748698-55.747675S625.674481 526.369266 625.674481 557.1145zM681.421132 529.241686c15.365966 0 27.873838 12.499685 27.873838 27.872814 0 15.365966-12.508895 27.866674-27.873838 27.866674s-27.873838-12.501732-27.873838-27.866674C653.547295 541.741371 666.05619 529.241686 681.421132 529.241686z" p-id="25062"></path></svg>