<?xml version="1.0" standalone="no"?><!DOCTYPE svg PUBLIC "-//W3C//DTD SVG 1.1//EN" "http://www.w3.org/Graphics/SVG/1.1/DTD/svg11.dtd"><svg t="1546715004695" class="icon" style="" viewBox="0 0 1024 1024" version="1.1" xmlns="http://www.w3.org/2000/svg" p-id="740" xmlns:xlink="http://www.w3.org/1999/xlink" width="200" height="200"><defs><style type="text/css"></style></defs><path d="M763.6228499 902.63215127h-501.21217793c-31.8653956 0-53.36801631-3.74416172-69.7225289-12.13906992-16.08019805-8.25460312-35.24890166-25.7441458-35.24890078-62.19193359V417.79067364h711.1604329V828.30114776c0 36.44778867-19.16870362 53.93822959-35.24890078 62.19193359-16.35631084 8.3949082-37.86073067 12.13906992-69.72792451 12.13906992zM193.41485088 453.76628222V828.30114776c0 24.87533467 10.99504512 38.35539492 68.99582109 38.35539492h501.21217793c58.00437334 0 69.00121758-13.48006026 69.0012167-38.35539492V453.76628222H193.41485088z" fill="#00cc99" p-id="741"></path><path d="M774.52345918 453.76628222H251.51366006v-17.98780429c0-3.75405469 0.12681386-50.93156865 0.47487744-57.91713223 3.91774395-79.40086612 32.06056289-146.43601612 81.38582051-193.85186836 23.39134102-22.48565449 50.88030293-39.87626396 81.70150693-51.68975448 30.48123339-11.68038105 63.43399161-17.60376445 97.94269424-17.60376446 34.31353536 0 67.08012011 5.82984756 97.38777129 17.32765166 30.68089805 11.63900918 58.07272676 28.79397773 81.41639942 50.98822998 49.21822969 46.79437325 77.60298516 113.1702706 82.08644589 191.95055772 0.45868886 8.12778925 0.61518252 56.75332148 0.61518252 60.79608016v17.9878043z m-486.97842832-35.97560859h450.93536543c-0.08903935-16.10448135-0.26082334-36.72120323-0.48926866-40.77205664C730.16733271 239.53333203 641.86070469 150.691567 513.01855918 150.691567c-127.88159589 0-218.34136494 92.00851787-225.09848321 228.95147109-0.17088398 3.43027442-0.30399346 22.7500752-0.37504511 38.14763555z" fill="#00cc99" p-id="742"></path><path d="M495.03075488 577.73373242h35.9756086v180.30795117h-35.9756086z" fill="#00cc99" p-id="743"></path></svg>